HIERARCHY
ROOT Hips
{
	OFFSET 0.00000 0.00000 0.00000
	CHANNELS 6 Xposition Yposition Zposition Zrotation Yrotation Xrotation 
	JOINT LHipJoint
	{
		OFFSET 0 0 0
		CHANNELS 3 Zrotation Yrotation Xrotation
		JOINT LeftUpLeg
		{
			OFFSET 3.13874 -1.57224 1.49786
			CHANNELS 3 Zrotation Yrotation Xrotation
			JOINT LeftLeg
			{
				OFFSET 2.10955 -5.79594 0.00000
				CHANNELS 3 Zrotation Yrotation Xrotation
				JOINT LeftFoot
				{
					OFFSET 2.41843 -6.64458 0.00000
					CHANNELS 3 Zrotation Yrotation Xrotation
					JOINT LeftToeBase
					{
						OFFSET 0.04713 -0.12948 1.66229
						CHANNELS 3 Zrotation Yrotation Xrotation
						End Site
						{
							OFFSET 0.00000 -0.00000 0.85167
						}
					}
				}
			}
		}
	}
	JOINT RHipJoint
	{
		OFFSET 0 0 0
		CHANNELS 3 Zrotation Yrotation Xrotation
		JOINT RightUpLeg
		{
			OFFSET -3.13988 -1.57224 1.49786
			CHANNELS 3 Zrotation Yrotation Xrotation
			JOINT RightLeg
			{
				OFFSET -2.15006 -5.90725 0.00000
				CHANNELS 3 Zrotation Yrotation Xrotation
				JOINT RightFoot
				{
					OFFSET -2.34496 -6.44273 0.00000
					CHANNELS 3 Zrotation Yrotation Xrotation
					JOINT RightToeBase
					{
						OFFSET -0.08699 -0.23900 1.55223
						CHANNELS 3 Zrotation Yrotation Xrotation
						End Site
						{
							OFFSET -0.00000 -0.00000 0.80281
						}
					}
				}
			}
		}
	}
	JOINT LowerBack
	{
		OFFSET 0 0 0
		CHANNELS 3 Zrotation Yrotation Xrotation
		JOINT Spine
		{
			OFFSET 0.01292 1.96517 -0.16495
			CHANNELS 3 Zrotation Yrotation Xrotation
			JOINT Spine1
			{
				OFFSET 0.02122 1.88666 0.19706
				CHANNELS 3 Zrotation Yrotation Xrotation
				JOINT Neck
				{
					OFFSET 0 0 0
					CHANNELS 3 Zrotation Yrotation Xrotation
					JOINT Neck1
					{
						OFFSET -0.01683 1.81591 0.07903
						CHANNELS 3 Zrotation Yrotation Xrotation
						JOINT Head
						{
							OFFSET 0.00815 1.74013 -0.47700
							CHANNELS 3 Zrotation Yrotation Xrotation
							End Site
							{
								OFFSET -0.00204 1.83225 -0.16933
							}
						}
					}
				}
				JOINT LeftShoulder
				{
					OFFSET 0 0 0
					CHANNELS 3 Zrotation Yrotation Xrotation
					JOINT LeftArm
					{
						OFFSET 3.38482 1.41533 0.19802
						CHANNELS 3 Zrotation Yrotation Xrotation
						JOINT LeftForeArm
						{
							OFFSET 4.32712 -0.00000 0.00000
							CHANNELS 3 Zrotation Yrotation Xrotation
							JOINT LeftHand
							{
								OFFSET 3.28587 -0.00000 -0.00000
								CHANNELS 3 Zrotation Yrotation Xrotation
								JOINT LeftFingerBase
								{
									OFFSET 0 0 0
									CHANNELS 3 Zrotation Yrotation Xrotation
									JOINT LeftHandIndex1
									{
										OFFSET 0.43316 -0.00000 -0.00000
										CHANNELS 3 Zrotation Yrotation Xrotation
										End Site
										{
											OFFSET 0.34922 -0.00000 -0.00000
										}
									}
								}
								JOINT LThumb
								{
									OFFSET 0 0 0
									CHANNELS 3 Zrotation Yrotation Xrotation
									End Site
									{
										OFFSET 0.35456 -0.00000 0.35456
									}
								}
							}
						}
					}
				}
				JOINT RightShoulder
				{
					OFFSET 0 0 0
					CHANNELS 3 Zrotation Yrotation Xrotation
					JOINT RightArm
					{
						OFFSET -3.09725 1.62858 -0.14144
						CHANNELS 3 Zrotation Yrotation Xrotation
						JOINT RightForeArm
						{
							OFFSET -4.29104 -0.00000 0.00000
							CHANNELS 3 Zrotation Yrotation Xrotation
							JOINT RightHand
							{
								OFFSET -3.22720 -0.00000 -0.00000
								CHANNELS 3 Zrotation Yrotation Xrotation
								JOINT RightFingerBase
								{
									OFFSET 0 0 0
									CHANNELS 3 Zrotation Yrotation Xrotation
									JOINT RightHandIndex1
									{
										OFFSET -0.54362 -0.00000 -0.00000
										CHANNELS 3 Zrotation Yrotation Xrotation
										End Site
										{
											OFFSET -0.43828 -0.00000 -0.00000
										}
									}
								}
								JOINT RThumb
								{
									OFFSET 0 0 0
									CHANNELS 3 Zrotation Yrotation Xrotation
									End Site
									{
										OFFSET -0.44497 -0.00000 0.44497
									}
								}
							}
						}
					}
				}
			}
		}
	}
}
MOTION
Frames: 14
Frame Time: 0.0555556
0.00 0.00 0.00 364.7320 169.7940 369.7000 0.0000 0.0000 0.0000 -16.7080 -31.3554 0.3129 2.5987 10.0152 29.0259 0.7590 -0.8680 -16.1898 12.3776 -18.5458 -67.1808 0.0000 0.0000 0.0000 20.1659 15.9481 -4.4244 -0.3353 -3.7215 10.2943 -0.1232 -7.6893 -13.2765 -1.0087 6.3905 -17.9218 10.0187 3.4970 12.2395 -6.5151 6.8746 -11.0251 -15.1816 1.5982 -17.3670 8.1896 5.6027 -12.2128 0.5562 1.1594 39.2564 -1.4889 0.1383 16.2706 -0.0000 0.0000 0.0000 -62.5871 20.6288 33.4576 21.9844 -32.9594 -6.5774 -0.0000 0.0000 -3.2112 32.5808 30.5003 17.9704 -7.1250 0.0000 -0.0000 1.7391 64.9277 0.8384 -0.0000 0.0000 0.0000 91.6838 -32.1675 26.0131 -20.6033 31.3623 -5.8421 0.0000 -0.0000 -7.0038 -23.6026 -19.3834 8.2513 7.1250 -0.0000 -0.0000 4.7399 -50.9241 -0.6932
0.00 0.00 0.00 362.6170 227.5340 372.3630 0.0000 0.0000 0.0000 -8.0913 -30.5243 -22.8175 0.4789 4.4378 12.3118 1.7178 8.9928 -29.4033 9.0078 -16.8127 -56.1170 0.0000 0.0000 0.0000 27.2959 0.3430 -2.0763 -0.0934 -1.9714 5.4265 -3.4112 -6.5458 -37.5874 -0.0348 -1.2048 3.3125 4.2594 0.6765 12.3801 0.9136 1.5792 -10.1204 -1.7161 0.0754 -18.6359 2.8304 3.9619 -11.3223 -6.5503 5.4206 32.9976 -2.4432 1.1943 13.2199 -0.0000 -0.0000 0.0000 -78.7261 22.7630 28.1860 20.2314 -30.9201 -5.6498 -0.0000 -0.0000 0.2528 27.8346 28.0005 13.9225 -7.1250 0.0000 -0.0000 -3.1221 60.9710 -1.2156 -0.0000 -0.0000 0.0000 72.2317 -32.2964 39.7765 -17.5095 27.5245 -4.3201 0.0000 -0.0000 -9.9658 -24.9487 -19.7662 8.9410 7.1250 -0.0000 -0.0000 3.4911 -51.5674 -0.5652
0.00 0.00 0.00 364.6160 237.9000 370.7200 0.0000 0.0000 0.0000 -10.3014 -23.1339 -26.8071 0.5304 4.6667 12.9603 5.8085 0.1637 -46.0316 5.4711 -13.8954 -42.8202 0.0000 0.0000 0.0000 31.6815 4.9659 4.8454 -0.0028 0.3398 -0.9336 -7.7122 -3.4712 -54.0800 -0.9611 -6.2424 17.4893 2.7239 0.3333 12.9055 3.1393 1.1456 -10.3402 1.8866 0.2929 -19.4039 0.5048 3.4238 -12.5324 -6.8423 5.5988 31.9010 -2.0558 1.0650 12.9679 0.0000 0.0000 0.0000 -82.8980 25.7644 19.2218 20.2119 -30.8968 -5.6398 -0.0000 -0.0000 0.4042 35.5376 28.8478 19.0155 -7.1250 0.0000 -0.0000 6.2935 63.9694 2.8988 0.0000 0.0000 0.0000 65.6855 -28.2521 45.9670 -16.3443 25.9853 -3.7956 0.0000 -0.0000 -6.5007 -26.1072 -20.5857 9.7764 7.1250 -0.0000 -0.0000 2.5195 -52.6603 -0.4752
0.00 0.00 0.00 371.4820 245.8470 364.8460 0.0000 0.0000 0.0000 -10.8248 -16.8298 -30.5456 1.4465 7.6031 21.5147 4.4286 5.7061 -41.9865 7.1311 -15.4413 -49.3684 0.0000 0.0000 0.0000 38.3622 14.5435 14.7683 -0.0875 1.9081 -5.2517 -14.4230 0.1081 -74.4275 -2.1871 -9.2453 26.5657 0.2231 0.5530 11.9732 5.6343 1.1849 -10.7750 6.2959 0.8906 -19.5376 1.6208 3.1941 -15.5427 -9.8339 6.2191 32.2970 -3.3540 1.0427 14.0256 -0.0000 0.0000 0.0000 -88.7126 29.1153 4.0091 16.2135 -25.8092 -3.7384 -0.0000 -0.0000 3.4477 30.4269 28.1217 15.4739 -7.1250 0.0000 -0.0000 -0.0519 61.7703 -0.0212 -0.0000 0.0000 0.0000 59.4917 -21.6934 49.6655 -18.3013 28.5412 -4.6923 0.0000 -0.0000 -9.0007 -27.2467 -19.5452 9.7750 7.1250 -0.0000 -0.0000 1.1096 -51.7440 -0.1843
0.00 0.00 0.00 361.4760 254.6460 371.1410 0.0000 0.0000 0.0000 -26.1614 -13.5259 -16.2619 0.5600 4.7930 13.3192 2.6699 -17.1143 -30.0739 1.8795 -8.6104 -24.5841 0.0000 0.0000 0.0000 22.1944 -4.8217 -0.5963 -1.5573 -7.8756 22.3369 -6.4316 -9.5114 -51.4817 -3.0361 -10.7533 31.4524 -5.8821 -0.0090 11.7701 6.3117 -0.7081 -11.0904 10.9663 0.9569 -19.1971 0.6812 3.1837 -16.6201 -7.3737 5.9500 30.9847 -2.1456 1.2921 13.5175 -0.0000 -0.0000 0.0000 -94.5407 30.3560 -6.0379 11.3972 -18.8945 -1.9025 -0.0000 -0.0000 15.4802 22.0421 30.3165 11.5507 -7.1250 0.0000 -0.0000 -11.1413 61.8851 -4.6078 -0.0000 -0.0000 0.0000 56.5293 -18.6905 52.9249 -25.9855 37.1944 -8.8789 0.0000 -0.0000 -18.2802 -28.0321 -19.4318 10.0447 7.1250 -0.0000 -0.0000 0.2836 -51.7645 -0.0472
0.00 0.00 0.00 261.9290 268.2150 468.7770 0.0000 0.0000 0.0000 -37.9070 -22.2993 8.9682 0.0082 0.5860 1.6102 2.5539 -24.3923 -31.3604 0.8014 -5.7136 -15.9555 0.0000 0.0000 0.0000 22.3461 3.1110 -31.6050 -3.2153 -11.0357 32.4003 -1.0505 -13.5246 -28.4950 -0.6910 5.3140 -14.8065 -11.8900 -1.7591 15.2191 7.9667 -4.5198 -11.3612 18.1275 0.5623 -20.4134 0.3958 1.5936 -15.8974 -8.2165 3.9126 25.8286 -2.5571 0.5626 11.2024 0.0000 0.0000 0.0000 -91.7573 18.9585 19.5230 23.1671 -34.2710 -7.2322 -0.0000 -0.0000 3.5683 28.6457 26.5186 13.7066 -7.1250 0.0000 -0.0000 -1.5704 59.5946 -0.5597 0.0000 0.0000 0.0000 54.7711 -21.0549 62.9519 -22.9562 34.0408 -7.1137 0.0000 -0.0000 -15.0190 -23.4213 -18.6341 7.8803 7.1250 -0.0000 -0.0000 4.7262 -50.0980 -0.5951
0.00 0.00 0.00 223.2100 265.5380 507.8990 0.0000 0.0000 0.0000 -41.5026 -23.7617 15.3018 0.0018 -0.2737 -0.7520 1.3793 -29.5718 -27.9753 0.1250 -2.2788 -6.2769 0.0000 0.0000 0.0000 17.4415 12.7652 -32.0660 -0.7120 -5.3927 15.0322 -0.3198 -15.8155 -25.3460 -0.8921 6.0204 -16.8435 -14.2034 -2.0562 15.7892 8.0543 -5.6169 -11.5826 20.0923 0.4907 -20.4499 -0.3227 1.4077 -16.9335 -8.1417 3.9005 25.9680 -2.4130 0.4755 11.4529 0.0000 0.0000 0.0000 -91.6676 16.0486 23.7172 27.5649 -38.7126 -9.8504 -0.0000 -0.0000 3.2177 29.1335 25.0192 13.2636 -7.1250 0.0000 -0.0000 -0.5000 58.0953 -0.1602 0.0000 0.0000 0.0000 53.0543 -21.9156 64.4632 -21.3784 32.2674 -6.2507 0.0000 -0.0000 -14.9947 -21.8562 -19.1663 7.5020 7.1250 -0.0000 -0.0000 6.4061 -50.4016 -0.8559
0.00 0.00 0.00 216.9300 264.4940 514.6050 0.0000 0.0000 0.0000 -43.9440 -26.0627 19.7401 0.0119 -0.7042 -1.9353 1.6769 -31.4650 -30.3086 0.1291 -2.3159 -6.3794 0.0000 0.0000 0.0000 11.3479 23.8817 -29.0293 -0.0878 -1.9107 5.2589 -1.1459 -17.7952 -33.2727 -0.2303 3.0889 -8.5264 -14.5903 -2.2122 15.9208 8.1042 -5.9800 -11.8013 20.5632 0.4461 -20.6311 -0.1661 1.3169 -16.9263 -8.7947 3.8784 25.4542 -2.6706 0.4200 11.2770 -0.0000 0.0000 0.0000 -91.7388 15.2499 24.9611 29.1205 -40.1275 -10.8383 -0.0000 -0.0000 3.7311 28.5944 24.2190 12.6046 -7.1250 0.0000 -0.0000 -0.8619 57.1039 -0.2556 -0.0000 0.0000 0.0000 52.4635 -22.3837 64.1029 -20.5524 31.3022 -5.8156 0.0000 -0.0000 -15.0265 -22.0214 -19.6123 7.7312 7.1250 -0.0000 -0.0000 6.3708 -50.8965 -0.9288
0.00 0.00 0.00 204.0140 260.3950 527.4570 0.0000 0.0000 0.0000 -45.1973 -21.7031 26.3111 0.0030 -0.3517 -0.9662 -2.5359 -37.6438 -14.7269 0.3176 -3.6226 -10.0173 0.0000 0.0000 0.0000 8.2626 31.0448 -27.1460 -0.0278 -1.0757 2.9571 -1.9529 -18.1692 -37.9991 -0.1179 -2.2141 6.0978 -15.0265 -3.1175 15.9279 8.3629 -7.4098 -12.3622 21.6351 -0.0529 -20.6218 -1.0060 1.3708 -17.5665 -9.1794 4.3567 25.7002 -2.6114 0.4713 11.5307 0.0000 0.0000 0.0000 -93.3430 16.1695 24.5874 28.6736 -39.7290 -10.5515 -0.0000 -0.0000 4.8494 28.4165 23.6915 12.2657 -7.1250 0.0000 -0.0000 -0.9040 56.4923 -0.2547 0.0000 0.0000 0.0000 50.8158 -24.3574 61.1001 -18.8152 29.1884 -4.9404 0.0000 -0.0000 -16.7100 -22.4930 -19.2432 7.7711 7.1250 -0.0000 -0.0000 5.8009 -50.5880 -0.8012
0.00 0.00 0.00 179.1380 264.0680 551.2510 0.0000 0.0000 0.0000 -30.3852 -4.7825 14.9685 1.0312 6.4593 18.1230 0.6650 -13.6837 -16.2737 0.4328 -4.2220 -11.7021 0.0000 0.0000 0.0000 25.8074 16.4126 -25.8056 -0.8514 -5.8849 16.4509 0.0183 -12.0087 -16.8369 -0.0708 1.7168 -4.7237 -11.3617 -2.6208 13.7122 9.2209 -5.3921 -12.1415 19.6394 0.1975 -20.0507 -1.4755 2.0102 -18.2180 -8.2355 5.3428 28.5348 -2.1119 0.8117 12.7942 -0.0000 0.0000 0.0000 -97.2449 24.3939 8.7020 19.1426 -29.5955 -5.1011 -0.0000 -0.0000 7.3051 28.5578 29.6387 15.0644 -7.1250 0.0000 -0.0000 -3.0197 62.8897 -1.3124 -0.0000 0.0000 0.0000 50.7388 -21.7972 62.5862 -17.8843 28.0088 -4.4948 0.0000 -0.0000 -16.7593 -23.3766 -19.1258 8.0609 7.1250 -0.0000 -0.0000 4.8963 -50.6125 -0.6786
0.00 0.00 0.00 147.2470 264.4120 581.4810 0.0000 0.0000 0.0000 -22.0651 0.0700 1.8900 4.8215 13.1799 40.0458 1.5082 1.0791 -23.6275 0.6164 -5.0247 -13.9790 0.0000 0.0000 0.0000 33.1438 15.0591 -14.5960 -0.4074 -4.0977 11.3518 -0.4594 -9.2185 -19.3131 -0.1204 2.2372 -6.1617 -9.0874 -2.2597 14.2103 9.6443 -4.2895 -11.7522 18.5040 0.4175 -20.4753 -1.2239 2.2283 -17.3782 -8.5528 5.6760 30.9071 -2.3219 0.7949 13.6507 0.0000 -0.0000 0.0000 -98.0108 27.3438 -1.2887 15.1145 -24.3054 -3.2729 -0.0000 -0.0000 10.5609 24.9411 29.8623 13.0377 -7.1250 0.0000 -0.0000 -7.4931 62.1688 -3.1376 0.0000 -0.0000 0.0000 51.6562 -19.9632 63.7650 -19.9306 30.5586 -5.4960 0.0000 -0.0000 -16.4630 -25.2136 -19.9956 9.1466 7.1250 -0.0000 -0.0000 3.2816 -51.8608 -0.5549
0.00 0.00 0.00 118.4610 264.0930 610.5330 0.0000 0.0000 0.0000 -19.1347 -6.9533 -28.6729 9.9059 17.3566 59.1735 1.1512 -14.7389 -20.3921 1.8711 -8.5923 -24.5281 0.0000 0.0000 0.0000 39.4416 13.5323 1.0239 -0.0053 -0.4694 1.2898 -0.5865 -10.0186 -21.3854 -0.2215 3.0299 -8.3619 -7.3119 -1.4420 13.9040 10.6375 -2.5303 -10.5644 17.9513 0.8432 -19.4699 -2.7945 2.5871 -17.0542 -9.7483 7.0537 32.2939 -2.3798 0.8979 14.3083 0.0000 -0.0000 0.0000 -100.2136 29.4874 -7.7349 15.9674 -25.4764 -3.6319 -0.0000 -0.0000 9.8423 29.3888 30.4663 15.9376 -7.1250 0.0000 -0.0000 -2.4023 63.9890 -1.1058 0.0000 -0.0000 0.0000 51.4334 -10.3812 66.0985 -22.9912 34.0792 -7.1334 0.0000 -0.0000 -16.6920 -25.4802 -20.8426 9.6234 7.1250 -0.0000 -0.0000 3.2310 -52.8182 -0.6221
0.00 0.00 0.00 108.4540 263.3560 620.7780 0.0000 0.0000 0.0000 -16.4781 -14.2822 -36.2159 5.9525 14.3821 44.7906 1.1108 -16.7380 -20.7450 2.1955 -9.2619 -26.6182 0.0000 0.0000 0.0000 42.5539 12.8698 8.3835 -0.0266 1.0519 -2.8916 -0.5443 -11.3397 -22.2945 -0.1293 2.3175 -6.3838 -6.1190 -1.0724 14.3886 10.9652 -1.6967 -10.1945 17.3756 1.0763 -19.6571 -2.6467 2.6426 -16.8663 -10.6997 7.3660 32.6182 -2.7716 0.8797 14.5046 0.0000 -0.0000 0.0000 -101.0307 30.6740 -4.5150 19.0426 -29.4716 -5.0518 -0.0000 -0.0000 4.4248 28.3557 28.7248 14.5410 -7.1250 0.0000 -0.0000 -2.8275 61.8713 -1.1610 0.0000 -0.0000 0.0000 52.5284 -6.3560 66.5289 -22.8312 33.9037 -7.0439 0.0000 -0.0000 -14.6307 -26.8687 -21.0504 10.3138 7.1250 -0.0000 -0.0000 1.8490 -53.3083 -0.3779
0.00 0.00 0.00 97.1462 262.1510 632.5630 0.0000 0.0000 0.0000 -11.4554 -21.2241 -35.6418 1.8249 8.4915 24.2172 2.2446 -14.0451 -27.2472 3.0202 -10.7277 -31.3670 0.0000 0.0000 0.0000 45.5542 13.2751 13.3367 -0.0684 1.6878 -4.6437 -0.5801 -12.7678 -24.0975 -0.2166 2.9962 -8.2681 -4.4701 -0.7180 14.4547 11.3791 -0.7809 -10.0407 16.5777 1.2800 -19.8503 -3.1042 2.8919 -17.4835 -10.5166 7.9513 33.6733 -2.5723 0.9913 15.1553 0.0000 0.0000 0.0000 -101.4698 30.8999 -2.9588 20.8132 -31.6097 -5.9518 -0.0000 -0.0000 2.6074 26.6399 27.8863 13.2041 -7.1250 0.0000 -0.0000 -4.4709 60.5506 -1.6971 0.0000 0.0000 0.0000 53.0192 -3.8790 68.9175 -22.5788 33.6249 -6.9036 0.0000 -0.0000 -15.5546 -26.5926 -18.7005 9.1184 7.1250 -0.0000 -0.0000 1.5928 -50.7064 -0.2240
